<svg width="148" height="45" viewBox="0 0 148 45" fill="none" xmlns="http://www.w3.org/2000/svg">
<path d="M24.0511 0.429321H22.2009V7.09904H24.0511V24.5372C24.0511 27.9814 21.2306 30.7702 17.7502 30.7702C14.2728 30.7702 11.4522 27.9814 11.4522 24.5372V7.09904H13.3025V0.429321H11.4522H0V9.49674V24.885C0 34.5892 7.94763 42.4546 17.7502 42.4546C27.5558 42.4546 35.5034 34.5892 35.5034 24.885V9.49674V0.429321H24.0511Z" fill="#2AABE4"/>
<g filter="url(#filter0_i_2004_3594)">
<path d="M32.6451 34.4473C29.4811 39.2674 23.9915 42.4547 17.7504 42.4547C7.94763 42.4547 0 34.5893 0 24.8851V23.7315C1.41977 21.2266 3.27221 18.1249 4.37544 16.6179C6.37101 13.8855 9.60262 9.23417 17.1798 9.06017C17.1798 9.06017 18.4129 7.92831 20.2329 7.60706L19.9976 10.5428C19.9976 10.5428 22.2583 13.4788 23.0235 14.4957C23.786 15.5126 23.5807 16.9071 23.5807 16.9071C23.5807 16.9071 25.9307 20.0944 26.6363 21.4648C27.3394 22.8377 26.8175 25.1901 25.4086 25.8459C23.9997 26.4988 23.0074 25.1688 22.3907 24.5372C21.7742 23.9056 20.1895 22.728 19.7271 22.5326C19.2646 22.3345 17.7883 22.8162 16.9743 22.2918C16.1575 21.77 15.3653 20.4398 15.3653 20.4398C15.3653 20.4398 13.3614 27.0797 18.8239 30.9173C23.6644 34.3162 27.5369 34.6562 32.6451 34.4473Z" fill="#D9D9D9"/>
</g>
<g filter="url(#filter1_i_2004_3594)">
<path d="M47.1744 6.10352e-05V17.3472H58.0981V6.10352e-05H62.4489V19.5465L60.2892 21.684H44.9519L42.7922 19.5465V6.10352e-05H47.1744Z" fill="#30B4E7"/>
</g>
<g filter="url(#filter2_i_2004_3594)">
<path d="M82.7548 21.684L71.8311 7.21761V21.684H67.449V6.10352e-05H71.8311L82.7548 14.4354V6.10352e-05H87.1058V21.684H82.7548Z" fill="#30B4E7"/>
</g>
<g filter="url(#filter3_i_2004_3594)">
<path d="M107.412 10.873V4.33681H100.839L96.4878 8.70452V10.873H107.412ZM92.1057 21.6839V6.53614L98.6474 -6.10352e-05H111.762V21.6839H107.412V15.2099H96.4878V21.6839H92.1057Z" fill="#30B4E7"/>
</g>
<g filter="url(#filter4_i_2004_3594)">
<path d="M132.068 10.873V4.33681H125.495L121.145 8.70452V10.873H132.068ZM116.762 21.6839V6.53614L123.304 -6.10352e-05H136.42V21.6839H132.068V15.2099H121.145V21.6839H116.762Z" fill="#30B4E7"/>
</g>
<g filter="url(#filter5_i_2004_3594)">
<path d="M47.9 26.9999C49.82 26.9999 51.4133 27.6733 52.68 29.0199C53.96 30.3666 54.6 32.0266 54.6 33.9999C54.6 35.9599 53.96 37.6199 52.68 38.9799C51.4133 40.3266 49.82 40.9999 47.9 40.9999H42.4V26.9999H47.9ZM47.9 38.7999C49.22 38.7999 50.2933 38.3466 51.12 37.4399C51.96 36.5333 52.38 35.3866 52.38 33.9999C52.38 32.5999 51.96 31.4533 51.12 30.5599C50.2933 29.6533 49.22 29.1999 47.9 29.1999H44.7V38.7999H47.9ZM58.9969 38.7999H65.1969V40.9999H56.6969V26.9999H65.0969V29.1999H58.9969V32.8399H64.5969V35.0199H58.9969V38.7999ZM76.4023 26.9999V29.1999H72.4623V40.9999H70.1623V29.1999H66.2023V26.9999H76.4023ZM86.227 40.9999L85.247 38.1799H79.287L78.307 40.9999H75.807L80.887 26.9999H83.647L88.707 40.9999H86.227ZM80.047 36.0199H84.487L82.267 29.6999L80.047 36.0199ZM90.2125 26.9999H92.5125V40.9999H90.2125V26.9999ZM97.6102 38.7999H103.31V40.9999H95.3102V26.9999H97.6102V38.7999ZM105.017 26.9999H107.317V40.9999H105.017V26.9999ZM118.515 26.9999H120.815V40.9999H119.015L112.415 31.4999V40.9999H110.115V26.9999H111.915L118.515 36.4999V26.9999ZM137.231 33.7599V34.7199C137.231 36.6399 136.598 38.2133 135.331 39.4399C134.064 40.6533 132.411 41.2599 130.371 41.2599C128.211 41.2599 126.424 40.5599 125.011 39.1599C123.611 37.7599 122.911 36.0399 122.911 33.9999C122.911 31.9733 123.611 30.2599 125.011 28.8599C126.424 27.4466 128.171 26.7399 130.251 26.7399C131.558 26.7399 132.751 27.0399 133.831 27.6399C134.911 28.2399 135.751 29.0466 136.351 30.0599L134.371 31.1999C133.998 30.5333 133.444 29.9999 132.711 29.5999C131.978 29.1866 131.158 28.9799 130.251 28.9799C128.784 28.9799 127.578 29.4599 126.631 30.4199C125.684 31.3799 125.211 32.5799 125.211 34.0199C125.211 35.4599 125.684 36.6533 126.631 37.5999C127.591 38.5466 128.844 39.0199 130.391 39.0199C131.631 39.0199 132.638 38.7333 133.411 38.1599C134.198 37.5733 134.698 36.7933 134.911 35.8199H130.231V33.7599H137.231Z" fill="white"/>
</g>
<defs>
<filter id="filter0_i_2004_3594" x="0" y="4.60706" width="32.645" height="37.8476" filterUnits="userSpaceOnUse" color-interpolation-filters="sRGB">
<feFlood flood-opacity="0" result="BackgroundImageFix"/>
<feBlend mode="normal" in="SourceGraphic" in2="BackgroundImageFix" result="shape"/>
<feColorMatrix in="SourceAlpha" type="matrix" values="0 0 0 0 0 0 0 0 0 0 0 0 0 0 0 0 0 0 127 0" result="hardAlpha"/>
<feOffset dy="-3"/>
<feGaussianBlur stdDeviation="2"/>
<feComposite in2="hardAlpha" operator="arithmetic" k2="-1" k3="1"/>
<feColorMatrix type="matrix" values="0 0 0 0 0.188235 0 0 0 0 0.705882 0 0 0 0 0.905882 0 0 0 0.68 0"/>
<feBlend mode="normal" in2="shape" result="effect1_innerShadow_2004_3594"/>
</filter>
<filter id="filter1_i_2004_3594" x="42.7922" y="6.10352e-05" width="19.6567" height="25.684" filterUnits="userSpaceOnUse" color-interpolation-filters="sRGB">
<feFlood flood-opacity="0" result="BackgroundImageFix"/>
<feBlend mode="normal" in="SourceGraphic" in2="BackgroundImageFix" result="shape"/>
<feColorMatrix in="SourceAlpha" type="matrix" values="0 0 0 0 0 0 0 0 0 0 0 0 0 0 0 0 0 0 127 0" result="hardAlpha"/>
<feOffset dy="4"/>
<feGaussianBlur stdDeviation="2"/>
<feComposite in2="hardAlpha" operator="arithmetic" k2="-1" k3="1"/>
<feColorMatrix type="matrix" values="0 0 0 0 0.0392157 0 0 0 0 0.388235 0 0 0 0 0.941176 0 0 0 0.44 0"/>
<feBlend mode="normal" in2="shape" result="effect1_innerShadow_2004_3594"/>
</filter>
<filter id="filter2_i_2004_3594" x="67.449" y="6.10352e-05" width="19.6567" height="25.684" filterUnits="userSpaceOnUse" color-interpolation-filters="sRGB">
<feFlood flood-opacity="0" result="BackgroundImageFix"/>
<feBlend mode="normal" in="SourceGraphic" in2="BackgroundImageFix" result="shape"/>
<feColorMatrix in="SourceAlpha" type="matrix" values="0 0 0 0 0 0 0 0 0 0 0 0 0 0 0 0 0 0 127 0" result="hardAlpha"/>
<feOffset dy="4"/>
<feGaussianBlur stdDeviation="2"/>
<feComposite in2="hardAlpha" operator="arithmetic" k2="-1" k3="1"/>
<feColorMatrix type="matrix" values="0 0 0 0 0.0392157 0 0 0 0 0.388235 0 0 0 0 0.941176 0 0 0 0.58 0"/>
<feBlend mode="normal" in2="shape" result="effect1_innerShadow_2004_3594"/>
</filter>
<filter id="filter3_i_2004_3594" x="92.1057" y="-6.10352e-05" width="19.6567" height="25.684" filterUnits="userSpaceOnUse" color-interpolation-filters="sRGB">
<feFlood flood-opacity="0" result="BackgroundImageFix"/>
<feBlend mode="normal" in="SourceGraphic" in2="BackgroundImageFix" result="shape"/>
<feColorMatrix in="SourceAlpha" type="matrix" values="0 0 0 0 0 0 0 0 0 0 0 0 0 0 0 0 0 0 127 0" result="hardAlpha"/>
<feOffset dy="4"/>
<feGaussianBlur stdDeviation="2"/>
<feComposite in2="hardAlpha" operator="arithmetic" k2="-1" k3="1"/>
<feColorMatrix type="matrix" values="0 0 0 0 0.0392157 0 0 0 0 0.388235 0 0 0 0 0.941176 0 0 0 0.56 0"/>
<feBlend mode="normal" in2="shape" result="effect1_innerShadow_2004_3594"/>
</filter>
<filter id="filter4_i_2004_3594" x="116.762" y="-6.10352e-05" width="19.6572" height="25.684" filterUnits="userSpaceOnUse" color-interpolation-filters="sRGB">
<feFlood flood-opacity="0" result="BackgroundImageFix"/>
<feBlend mode="normal" in="SourceGraphic" in2="BackgroundImageFix" result="shape"/>
<feColorMatrix in="SourceAlpha" type="matrix" values="0 0 0 0 0 0 0 0 0 0 0 0 0 0 0 0 0 0 127 0" result="hardAlpha"/>
<feOffset dy="4"/>
<feGaussianBlur stdDeviation="2"/>
<feComposite in2="hardAlpha" operator="arithmetic" k2="-1" k3="1"/>
<feColorMatrix type="matrix" values="0 0 0 0 0.0392157 0 0 0 0 0.388235 0 0 0 0 0.941176 0 0 0 0.56 0"/>
<feBlend mode="normal" in2="shape" result="effect1_innerShadow_2004_3594"/>
</filter>
<filter id="filter5_i_2004_3594" x="42.3999" y="26.7399" width="94.8311" height="18.52" filterUnits="userSpaceOnUse" color-interpolation-filters="sRGB">
<feFlood flood-opacity="0" result="BackgroundImageFix"/>
<feBlend mode="normal" in="SourceGraphic" in2="BackgroundImageFix" result="shape"/>
<feColorMatrix in="SourceAlpha" type="matrix" values="0 0 0 0 0 0 0 0 0 0 0 0 0 0 0 0 0 0 127 0" result="hardAlpha"/>
<feOffset dy="4"/>
<feGaussianBlur stdDeviation="2"/>
<feComposite in2="hardAlpha" operator="arithmetic" k2="-1" k3="1"/>
<feColorMatrix type="matrix" values="0 0 0 0 0.188235 0 0 0 0 0.705882 0 0 0 0 0.905882 0 0 0 0.26 0"/>
<feBlend mode="normal" in2="shape" result="effect1_innerShadow_2004_3594"/>
</filter>
</defs>
</svg>
