<svg width="16" height="16" viewBox="0 0 16 16" fill="none" xmlns="http://www.w3.org/2000/svg">
<path fill-rule="evenodd" clip-rule="evenodd" d="M7.33337 2.66659C4.75605 2.66659 2.66671 4.75592 2.66671 7.33325C2.66671 9.91058 4.75605 11.9999 7.33337 11.9999C9.9107 11.9999 12 9.91058 12 7.33325C12 4.75592 9.9107 2.66659 7.33337 2.66659ZM1.33337 7.33325C1.33337 4.01954 4.01967 1.33325 7.33337 1.33325C10.6471 1.33325 13.3334 4.01954 13.3334 7.33325C13.3334 8.74993 12.8424 10.0519 12.0213 11.0784L14.4714 13.5285C14.7318 13.7889 14.7318 14.211 14.4714 14.4713C14.2111 14.7317 13.789 14.7317 13.5286 14.4713L11.0785 12.0212C10.0521 12.8423 8.75005 13.3333 7.33337 13.3333C4.01967 13.3333 1.33337 10.647 1.33337 7.33325Z" fill="#007AFF"/>
</svg>
