<svg width="26" height="26" viewBox="0 0 26 26" fill="none" xmlns="http://www.w3.org/2000/svg">
<path fill-rule="evenodd" clip-rule="evenodd" d="M3.25 5.41669C3.25 7.21161 4.70507 8.66669 6.5 8.66669C8.29493 8.66669 9.75 7.21161 9.75 5.41669C9.75 3.62176 8.29493 2.16669 6.5 2.16669C4.70507 2.16669 3.25 3.62176 3.25 5.41669ZM4.875 5.41669C4.875 6.31415 5.60254 7.04169 6.5 7.04169C7.39746 7.04169 8.125 6.31415 8.125 5.41669C8.125 4.51923 7.39746 3.79169 6.5 3.79169C5.60254 3.79169 4.875 4.51923 4.875 5.41669Z" fill="white"/>
<path fill-rule="evenodd" clip-rule="evenodd" d="M19.6482 7.65498C19.2014 6.16573 17.8307 5.14585 16.2759 5.14585L11.9167 5.14585C11.4679 5.14585 11.1042 4.78209 11.1042 4.33335C11.1042 3.88462 11.4679 3.52085 11.9167 3.52085L16.2759 3.52085C18.5483 3.52085 20.5517 5.01144 21.2047 7.18804L23.5282 14.9332C23.551 15.009 23.5625 15.0876 23.5625 15.1667L23.5625 16.4793C23.5625 17.3144 23.3593 18.1369 22.9703 18.8759L22.5208 19.73C21.631 21.4207 19.8777 22.4792 17.9672 22.4792L8.03284 22.4792C6.1223 22.4792 4.36903 21.4207 3.4792 19.73L3.02969 18.8759C2.64074 18.1369 2.4375 17.3144 2.4375 16.4793L2.4375 15.1667C2.4375 15.0876 2.44904 15.009 2.47177 14.9332L3.77177 10.5999C3.90071 10.1701 4.35366 9.92618 4.78347 10.0551C5.21328 10.1841 5.45718 10.637 5.32824 11.0668L4.34203 14.3542L6.09537 14.3542C7.62255 14.3542 9.07084 15.0325 10.0485 16.2057L10.1582 16.3373C10.8271 17.1401 11.818 17.6042 12.863 17.6042L13.137 17.6042C14.182 17.6042 15.1729 17.1401 15.8418 16.3373L15.9515 16.2057C16.9292 15.0325 18.3774 14.3542 19.9046 14.3542L21.658 14.3542L19.6482 7.65498ZM6.09537 15.9792L4.0625 15.9792L4.0625 16.4793C4.0625 17.0507 4.20156 17.6135 4.46769 18.1191L4.91719 18.9732C5.52602 20.1299 6.72563 20.8542 8.03284 20.8542L17.9672 20.8542C19.2744 20.8542 20.474 20.1299 21.0828 18.9732L21.5323 18.1191C21.7984 17.6135 21.9375 17.0507 21.9375 16.4793L21.9375 15.9792L19.9046 15.9792C18.8597 15.9792 17.8688 16.4433 17.1998 17.246L17.0902 17.3776C16.1125 18.5508 14.6642 19.2292 13.137 19.2292L12.863 19.2292C11.3358 19.2292 9.8875 18.5508 8.90982 17.3776L8.80016 17.246C8.13122 16.4433 7.14029 15.9792 6.09537 15.9792Z" fill="white"/>
</svg>
