<svg width="24" height="25" viewBox="0 0 24 25" fill="none" xmlns="http://www.w3.org/2000/svg">
<path fill-rule="evenodd" clip-rule="evenodd" d="M18.6001 8C18.6001 10.4853 16.5854 12.5 14.1001 12.5C11.6148 12.5 9.60009 10.4853 9.60009 8C9.60009 5.51472 11.6148 3.5 14.1001 3.5C16.5854 3.5 18.6001 5.51472 18.6001 8ZM17.1001 8C17.1001 9.65685 15.7569 11 14.1001 11C12.4432 11 11.1001 9.65685 11.1001 8C11.1001 6.34315 12.4432 5 14.1001 5C15.7569 5 17.1001 6.34315 17.1001 8Z" fill="white"/>
<path fill-rule="evenodd" clip-rule="evenodd" d="M21.3001 17.45C21.3001 19.6867 18.0765 21.5 14.1001 21.5C10.1236 21.5 6.90009 19.6867 6.90009 17.45C6.90009 15.2132 10.1236 13.4 14.1001 13.4C18.0765 13.4 21.3001 15.2132 21.3001 17.45ZM19.8001 17.45C19.8001 17.7858 19.5423 18.3953 18.4559 19.0064C17.4164 19.5911 15.8795 20 14.1001 20C12.3207 20 10.7837 19.5911 9.74431 19.0064C8.65787 18.3953 8.40009 17.7858 8.40009 17.45C8.40009 17.1142 8.65787 16.5047 9.74431 15.8936C10.7837 15.3089 12.3207 14.9 14.1001 14.9C15.8795 14.9 17.4164 15.3089 18.4559 15.8936C19.5423 16.5047 19.8001 17.1142 19.8001 17.45Z" fill="white"/>
<path d="M9.1001 5.03222C9.1001 4.74587 8.88645 4.5 8.6001 4.5C6.39096 4.5 4.6001 6.29086 4.6001 8.5C4.6001 10.7091 6.39096 12.5 8.6001 12.5C8.88645 12.5 9.1001 12.2541 9.1001 11.9678V11.4533C9.1001 11.1932 8.86021 11 8.6001 11C7.21939 11 6.1001 9.88071 6.1001 8.5C6.1001 7.11929 7.21939 6 8.6001 6C8.86021 6 9.1001 5.80679 9.1001 5.54667V5.03222Z" fill="white"/>
<path d="M5.67824 14.0237C6.14346 13.8683 6.6001 14.2343 6.6001 14.7248C6.6001 15.0715 6.36549 15.3704 6.03865 15.4859C5.73496 15.5932 5.459 15.7145 5.21505 15.8458C4.23618 16.3729 4.1001 16.8497 4.1001 17C4.1001 17.1503 4.23618 17.6271 5.21505 18.1542C5.459 18.2855 5.73496 18.4068 6.03865 18.5141C6.36549 18.6296 6.6001 18.9285 6.6001 19.2752C6.6001 19.7657 6.14346 20.1317 5.67824 19.9763C3.83055 19.3591 2.6001 18.2569 2.6001 17C2.6001 15.7431 3.83055 14.6409 5.67824 14.0237Z" fill="white"/>
</svg>
