<svg width="26" height="27" viewBox="0 0 26 27" fill="none" xmlns="http://www.w3.org/2000/svg">
<path fill-rule="evenodd" clip-rule="evenodd" d="M3.25 5.91669C3.25 7.71161 4.70507 9.16669 6.5 9.16669C8.29493 9.16669 9.75 7.71161 9.75 5.91669C9.75 4.12176 8.29493 2.66669 6.5 2.66669C4.70507 2.66669 3.25 4.12176 3.25 5.91669ZM4.875 5.91669C4.875 6.81415 5.60254 7.54169 6.5 7.54169C7.39746 7.54169 8.125 6.81415 8.125 5.91669C8.125 5.01923 7.39746 4.29169 6.5 4.29169C5.60254 4.29169 4.875 5.01923 4.875 5.91669Z" fill="white"/>
<path fill-rule="evenodd" clip-rule="evenodd" d="M19.6482 8.15498C19.2014 6.66573 17.8307 5.64585 16.2759 5.64585L11.9167 5.64585C11.4679 5.64585 11.1042 5.28209 11.1042 4.83335C11.1042 4.38462 11.4679 4.02085 11.9167 4.02085L16.2759 4.02085C18.5483 4.02085 20.5517 5.51144 21.2047 7.68804L23.5282 15.4332C23.551 15.509 23.5625 15.5876 23.5625 15.6667L23.5625 16.9793C23.5625 17.8144 23.3593 18.6369 22.9703 19.3759L22.5208 20.23C21.631 21.9207 19.8777 22.9792 17.9672 22.9792L8.03284 22.9792C6.1223 22.9792 4.36903 21.9207 3.4792 20.23L3.02969 19.3759C2.64074 18.6369 2.4375 17.8144 2.4375 16.9793L2.4375 15.6667C2.4375 15.5876 2.44904 15.509 2.47177 15.4332L3.77177 11.0999C3.90071 10.6701 4.35366 10.4262 4.78347 10.5551C5.21328 10.6841 5.45718 11.137 5.32824 11.5668L4.34203 14.8542L6.09537 14.8542C7.62255 14.8542 9.07084 15.5325 10.0485 16.7057L10.1582 16.8373C10.8271 17.6401 11.818 18.1042 12.863 18.1042L13.137 18.1042C14.182 18.1042 15.1729 17.6401 15.8418 16.8373L15.9515 16.7057C16.9292 15.5325 18.3774 14.8542 19.9046 14.8542L21.658 14.8542L19.6482 8.15498ZM6.09537 16.4792L4.0625 16.4792L4.0625 16.9793C4.0625 17.5507 4.20156 18.1135 4.46769 18.6191L4.91719 19.4732C5.52602 20.6299 6.72563 21.3542 8.03284 21.3542L17.9672 21.3542C19.2744 21.3542 20.474 20.6299 21.0828 19.4732L21.5323 18.6191C21.7984 18.1135 21.9375 17.5507 21.9375 16.9793L21.9375 16.4792L19.9046 16.4792C18.8597 16.4792 17.8688 16.9433 17.1998 17.746L17.0902 17.8776C16.1125 19.0508 14.6642 19.7292 13.137 19.7292L12.863 19.7292C11.3358 19.7292 9.8875 19.0508 8.90982 17.8776L8.80016 17.746C8.13122 16.9433 7.14029 16.4792 6.09537 16.4792Z" fill="white"/>
</svg>
