<svg width="24" height="25" viewBox="0 0 24 25" fill="none" xmlns="http://www.w3.org/2000/svg">
<path fill-rule="evenodd" clip-rule="evenodd" d="M8 2.5H6C3.79086 2.5 2 4.29086 2 6.5V9.5C2 11.7091 3.79086 13.5 6 13.5H8C10.2091 13.5 12 11.7091 12 9.5V6.5C12 4.29086 10.2091 2.5 8 2.5ZM6 4H8C9.38071 4 10.5 5.11929 10.5 6.5V9.5C10.5 10.8807 9.38071 12 8 12H6C4.61929 12 3.5 10.8807 3.5 9.5V6.5C3.5 5.11929 4.61929 4 6 4Z" fill="white"/>
<path d="M17.75 3.5C17.75 3.08579 17.4142 2.75 17 2.75C16.5858 2.75 16.25 3.08579 16.25 3.5V5.75H14C13.5858 5.75 13.25 6.08579 13.25 6.5C13.25 6.91421 13.5858 7.25 14 7.25H16.25V9.5C16.25 9.91421 16.5858 10.25 17 10.25C17.4142 10.25 17.75 9.91421 17.75 9.5V7.25H20C20.4142 7.25 20.75 6.91421 20.75 6.5C20.75 6.08579 20.4142 5.75 20 5.75H17.75V3.5Z" fill="white"/>
<path fill-rule="evenodd" clip-rule="evenodd" d="M16 11.5H18C20.2091 11.5 22 13.2909 22 15.5V18.5C22 20.7091 20.2091 22.5 18 22.5H16C13.7909 22.5 12 20.7091 12 18.5V15.5C12 13.2909 13.7909 11.5 16 11.5ZM16 13C14.6193 13 13.5 14.1193 13.5 15.5V18.5C13.5 19.8807 14.6193 21 16 21H18C19.3807 21 20.5 19.8807 20.5 18.5V15.5C20.5 14.1193 19.3807 13 18 13H16Z" fill="white"/>
<path fill-rule="evenodd" clip-rule="evenodd" d="M7.85789 15.4779C7.30001 14.5171 5.87034 14.5066 5.2939 15.4517L2.45448 20.1071C1.82146 21.145 2.69505 22.25 3.7287 22.25H9.27135C10.2932 22.25 11.1634 21.1704 10.5611 20.1333L7.85789 15.4779ZM3.81938 20.75L6.5639 16.2501L6.56848 16.25L6.57179 16.2501L9.18469 20.75H3.81938Z" fill="white"/>
</svg>
