<svg width="24" height="25" viewBox="0 0 24 25" fill="none" xmlns="http://www.w3.org/2000/svg">
<path fill-rule="evenodd" clip-rule="evenodd" d="M2 10.25L10.1762 20.3149C11.1166 21.4725 12.8837 21.4722 13.824 20.3146L22 10.25L19.5528 5.35557C19.214 4.678 18.5215 4.25 17.7639 4.25H6.23607C5.47852 4.25 4.786 4.678 4.44721 5.35557L2 10.25ZM4.82121 11.3439L7.46804 14.6022L6.43983 11.5382L4.82121 11.3439ZM8.06889 11.6778L10.1639 17.9208L11.3405 19.3691C11.6803 19.7875 12.3195 19.7877 12.6598 19.3689L13.8363 17.9206L15.9311 11.6778C13.3129 11.8403 10.6871 11.8403 8.06889 11.6778ZM17.4783 10.0372L20.0616 9.72723L18.2111 6.02639C18.1264 5.857 17.9533 5.75 17.7639 5.75H15.7285L17.4783 10.0372ZM14.1084 5.75H9.89178L8.08524 10.1759C10.6925 10.341 13.3076 10.341 15.9148 10.1759L14.1084 5.75ZM6.52169 10.0372L8.27163 5.75H6.23607C6.04668 5.75 5.87355 5.857 5.78885 6.02639L3.93843 9.72723L6.52169 10.0372ZM19.1788 11.3439L17.5602 11.5382L16.532 14.6021L19.1788 11.3439Z" fill="white"/>
</svg>
