<svg width="24" height="25" viewBox="0 0 24 25" fill="none" xmlns="http://www.w3.org/2000/svg">
<path d="M19.75 5.06066V7.25C19.75 7.66421 19.4142 8 19 8C18.5858 8 18.25 7.66421 18.25 7.25V5.06066L18.0303 5.28033C17.7374 5.57322 17.2626 5.57322 16.9697 5.28033C16.6768 4.98744 16.6768 4.51256 16.9697 4.21967L18.4697 2.71967C18.6103 2.57902 18.8011 2.5 19 2.5C19.1989 2.5 19.3897 2.57902 19.5303 2.71967L21.0303 4.21967C21.3232 4.51256 21.3232 4.98744 21.0303 5.28033C20.7374 5.57322 20.2626 5.57322 19.9697 5.28033L19.75 5.06066Z" fill="white"/>
<path d="M17.25 12.5C17.25 12.0858 17.5858 11.75 18 11.75H19C19.4142 11.75 19.75 12.0858 19.75 12.5C19.75 12.9142 19.4142 13.25 19 13.25H18C17.5858 13.25 17.25 12.9142 17.25 12.5Z" fill="white"/>
<path fill-rule="evenodd" clip-rule="evenodd" d="M16 5.25C16 4.83579 15.6642 4.5 15.25 4.5H6C3.79086 4.5 2 6.29086 2 8.5V16.5C2 18.7091 3.79086 20.5 6 20.5H18C20.2091 20.5 22 18.7091 22 16.5V9.25C22 8.83579 21.6642 8.5 21.25 8.5C21.2106 8.5 21.1718 8.50304 21.1341 8.50891C21.0902 8.50303 21.0455 8.5 21 8.5H18C15.7909 8.5 14 10.2909 14 12.5C14 14.7091 15.7909 16.5 18 16.5L20.5 16.5C20.5 17.8807 19.3807 19 18 19H6C4.61929 19 3.5 17.8807 3.5 16.5V8.5C3.5 7.11929 4.61929 6 6 6H15.25C15.6642 6 16 5.66421 16 5.25ZM18 10H20.5V15H18C16.6193 15 15.5 13.8807 15.5 12.5C15.5 11.1193 16.6193 10 18 10Z" fill="white"/>
<path d="M7.1233 7.7602C6.71472 7.69211 6.3283 7.96812 6.2602 8.3767C6.19211 8.78528 6.46812 9.1717 6.8767 9.2398L9.2191 9.6302C9.73614 9.71637 10.2639 9.71637 10.7809 9.6302L13.1233 9.2398C13.5319 9.1717 13.8079 8.78528 13.7398 8.3767C13.6717 7.96812 13.2853 7.69211 12.8767 7.7602L10.5343 8.15061C10.1805 8.20956 9.81946 8.20956 9.4657 8.15061L7.1233 7.7602Z" fill="white"/>
</svg>
