<svg width="24" height="25" viewBox="0 0 24 25" fill="none" xmlns="http://www.w3.org/2000/svg">
<path fill-rule="evenodd" clip-rule="evenodd" d="M8.62127 6.8274C8.07174 4.62929 9.73425 2.5 12 2.5C14.2658 2.5 15.9283 4.62929 15.3787 6.8274L15.2106 7.5H17.75C19.2688 7.5 20.5 8.73122 20.5 10.25V17.75C20.5 20.3734 18.3734 22.5 15.75 22.5H6.25C4.73122 22.5 3.5 21.2688 3.5 19.75V17.25C3.5 17.019 3.6064 16.801 3.78844 16.6588C3.97048 16.5167 4.20785 16.4664 4.43191 16.5224L6.03624 16.9235C7.28762 17.2363 8.49982 16.2899 8.49982 15C8.49982 13.7101 7.28762 12.7637 6.03624 13.0765L4.43191 13.4776C4.20785 13.5336 3.97048 13.4833 3.78844 13.3412C3.6064 13.199 3.5 12.981 3.5 12.75V9.25C3.5 8.2835 4.2835 7.5 5.25 7.5H8.78942L8.62127 6.8274ZM12 4C10.7101 4 9.76364 5.21221 10.0765 6.4636L10.4776 8.0681C10.5336 8.29215 10.4833 8.52952 10.3412 8.71156C10.199 8.8936 9.98095 9 9.75 9H5.25C5.11193 9 5 9.11193 5 9.25V11.7894L5.67242 11.6213C7.87052 11.0718 9.99982 12.7342 9.99982 15C9.99982 17.2658 7.87052 18.9282 5.67243 18.3787L5 18.2106V19.75C5 20.4404 5.55964 21 6.25 21H15.75C17.5449 21 19 19.5449 19 17.75V10.25C19 9.55964 18.4404 9 17.75 9H14.25C14.019 9 13.801 8.8936 13.6588 8.71156C13.5167 8.52952 13.4664 8.29215 13.5224 8.0681L13.9235 6.4636C14.2364 5.21221 13.2899 4 12 4Z" fill="white"/>
</svg>
