<svg width="25" height="25" viewBox="0 0 25 25" fill="none" xmlns="http://www.w3.org/2000/svg">
<path fill-rule="evenodd" clip-rule="evenodd" d="M18.5 2.5H16.5C14.8431 2.5 13.5 3.84315 13.5 5.5V19.5C13.5 21.1569 14.8431 22.5 16.5 22.5H18.5C20.1569 22.5 21.5 21.1569 21.5 19.5V5.5C21.5 3.84315 20.1569 2.5 18.5 2.5ZM16.5 4H18.5C19.3284 4 20 4.67157 20 5.5V19.5C20 20.3284 19.3284 21 18.5 21H16.5C15.6716 21 15 20.3284 15 19.5V5.5C15 4.67157 15.6716 4 16.5 4Z" fill="white"/>
<path fill-rule="evenodd" clip-rule="evenodd" d="M8.5 8.5H6.5C4.84315 8.5 3.5 9.84315 3.5 11.5V19.5C3.5 21.1569 4.84315 22.5 6.5 22.5H8.5C10.1569 22.5 11.5 21.1569 11.5 19.5V11.5C11.5 9.84315 10.1569 8.5 8.5 8.5ZM6.5 10H8.5C9.32843 10 10 10.6716 10 11.5V19.5C10 20.3284 9.32843 21 8.5 21H6.5C5.67157 21 5 20.3284 5 19.5V11.5C5 10.6716 5.67157 10 6.5 10Z" fill="white"/>
</svg>
