<svg width="20" height="18" viewBox="0 0 20 18" fill="none" xmlns="http://www.w3.org/2000/svg">
<path d="M2.75 5C2.75 3.20507 4.20507 1.75 6 1.75H8C8.41421 1.75 8.75 1.41421 8.75 1C8.75 0.585786 8.41421 0.25 8 0.25H6C3.37665 0.25 1.25 2.37665 1.25 5V7C1.25 7.41421 1.58579 7.75 2 7.75C2.41421 7.75 2.75 7.41421 2.75 7V5Z" fill="white"/>
<path d="M1 9.25C0.585786 9.25 0.25 9.58579 0.25 10C0.25 10.4142 0.585786 10.75 1 10.75H19C19.4142 10.75 19.75 10.4142 19.75 10C19.75 9.58579 19.4142 9.25 19 9.25H1Z" fill="white"/>
<path d="M1.25 11.5V13C1.25 15.6234 3.37665 17.75 6 17.75H8C8.41421 17.75 8.75 17.4142 8.75 17C8.75 16.5858 8.41421 16.25 8 16.25H6C4.20507 16.25 2.75 14.7949 2.75 13V11.5H1.25Z" fill="white"/>
<path d="M17.25 11.5V13C17.25 14.7949 15.7949 16.25 14 16.25H12C11.5858 16.25 11.25 16.5858 11.25 17C11.25 17.4142 11.5858 17.75 12 17.75H14C16.6234 17.75 18.75 15.6234 18.75 13V11.5H17.25Z" fill="white"/>
<path d="M12 0.25C11.5858 0.25 11.25 0.585786 11.25 1C11.25 1.41421 11.5858 1.75 12 1.75H14C15.7949 1.75 17.25 3.20507 17.25 5V7C17.25 7.41421 17.5858 7.75 18 7.75C18.4142 7.75 18.75 7.41421 18.75 7V5C18.75 2.37665 16.6234 0.25 14 0.25H12Z" fill="white"/>
</svg>
