<svg width="26" height="25" viewBox="0 0 26 25" fill="none" xmlns="http://www.w3.org/2000/svg">
<path d="M17.3333 2.05261L19.5 2.05261C21.2949 2.05261 22.75 3.43111 22.75 5.13156L22.75 19.5C22.75 21.2005 21.2949 22.5789 19.5 22.5789L17.3333 22.5789C15.5384 22.5789 14.0833 21.2004 14.0833 19.5L14.0833 5.13156C14.0833 3.43111 15.5384 2.05261 17.3333 2.05261Z" fill="#E4E4E7"/>
<path d="M6.5 8.21051L8.66667 8.21051C10.4616 8.21051 11.9167 9.589 11.9167 11.2895L11.9167 19.5C11.9167 21.2004 10.4616 22.5789 8.66667 22.5789L6.5 22.5789C4.70507 22.5789 3.25 21.2004 3.25 19.5L3.25 11.2895C3.25 9.589 4.70507 8.21051 6.5 8.21051Z" fill="#E4E4E7"/>
</svg>
